<svg width="58" height="30" xmlns="http://www.w3.org/2000/svg"><path d="M44.208.729C44.933.335 45.95.22 46.58.804c.596.553.492 1.359.073 2.6l-.13.362c-.502 1.359-4.217 11.402-4.456 12.09-1.06 3.001 1.391 2.915 2.847-.108l.243-.52c.77-1.69 1.626-3.977 1.626-3.977l.127-.394c.267-.871.328-1.406.127-1.606-.075-.08.032-.179.129-.229 1.564-.792 3.19-.087 2.423 2.165l-.12.32-1.878 4.717c-.478 1.173-.42 2.288.295 2.288.486-.002 1.033-.272 1.63-.769 1.143-.946 2.055-2.62 2.494-3.548l.368-.819c.264-.603.676-1.584 1.023-2.576.167-.47.261-.962.28-1.46a.314.314 0 0 1 .137-.325 2.531 2.531 0 0 1 1.18-.297c.406-.008.79.177 1.037.498.292.394.387 1.02.138 1.803l-.075.211-2.66 7.016v.019c1.368-.82 2.6-.92 3.378-.652l.126.048-.003-.01c1.058.458 1.408 1.726.664 2.518-.073.078-.256.06-.256-.064-.065-.864-1.698-2.395-4.136-.88l-.185.12-1.072 2.825c-1.792 4.669-3.717 7.986-6.445 7.214-1.902-.538-1.682-3.259.364-5.51a38.832 38.832 0 0 1 4.59-4.172l.133-.362.44-1.262.12-.34.113-.366-.633.719c-.549.597-1.689 1.68-3.412 1.454l-.228-.038-.192-.043c-1.428-.365-1.818-1.403-1.851-2.311-1.515 1.878-3.078 2.423-4.108 2.398-1.378-.034-2.389-1.071-1.716-3.035l.468-1.34c1.152-3.258 3.556-9.884 4.337-12.1l.119-.399c.25-.887.31-1.459.012-1.703-.087-.074.036-.188.142-.245zm5.89 20.47.025-.115-.445.363c-1.155.962-3.583 3.125-4.33 4.9-.358.847-.266 1.52.345 1.58 1.352.133 2.765-2.56 4.288-6.429l.117-.3zM8.763.456c1.682-.176 3.26.68 2.574 3.376l-.155.475a393.7 393.7 0 0 1-1.363 3.898l-.841 2.366c3.318-.794 9.24-4.648 9.927-7.133.085-.114.206-.155.4-.025.35.234.486.817.35 1.357-.54 2.149-4.537 5.192-8.048 6.758l.123.317c.542 1.357 1.86 4.276 2.852 6.127 1.176 2.206 2.419 3.236 4.348 3.35 1.021.06 2.106-.307 2.731-.844l.127-.117-.009.02c.137-.144.362.055.259.23a4.597 4.597 0 0 1-3.531 2.027c-4.488.302-6.206-2.737-9.41-10.252l-.888.318-1.506 4.12c-.668 2.029-.712 3.141-.254 3.461.103.065.053.236-.126.293-1.787.563-3.432-.492-2.517-3.142l4.89-13.881c.302-.915.14-1.503-.347-1.632C6.017 1.305.62 6.235 1.394 10.786c.126.74.62 1.175.915 1.182l.06-.005a.094.094 0 0 1 .11.112 1.066 1.066 0 0 1-1.305.73C.346 12.624.076 11.736.03 11.278-.425 6.568 4.348.916 8.763.456zM25.935 9c1.082-.598 3.013-.454 2.415 1.812l-.051.179-2.003 5.771c-.215.602-.07 1.23.355 1.346 1.243.34 2.85-1.517 3.63-3.348l.279-.673c.237-.588.442-1.135.59-1.539l.325-.918c.344-.994.603-1.884.403-2.332-.053-.12.032-.181.158-.248.357-.18 1.574-.583 2.222.048.486.472.431 1.237-.008 2.394l-.081.208.19-.234c1.885-2.29 3.346-2.984 4.588-2.51l.123.05c1.685.76.81 3.69-1.496 3.877-.126.01-.227-.068-.15-.225l.038-.063c.279-.428.251-1.35-.563-1.43-.815-.08-2.003.853-2.856 2.011-.767 1.026-1.556 2.767-2.35 5.145-.193.579-.101.716-.078.755a.07.07 0 0 1 0 .066c-.101.192-.682.421-1.245.421-1.149-.004-1.62-.668-1.392-1.723-1.306 1.247-2.624 1.85-3.787 1.744a1.785 1.785 0 0 1-1.581-2.195c-1.01 1.28-2.506 2.312-4.03 2.17-1.524-.142-2.476-1.179-1.982-3.387.417-1.838 1.126-3.742 1.56-4.97.365-1.03.438-1.703.21-1.946-.074-.08.038-.176.136-.228 1.195-.627 3.108-.222 2.568 1.478l-.213.654c-.58 1.751-1.406 4.01-1.59 4.58-.522 1.617-.206 2.491.533 2.533.696.038 1.604-.598 2.292-1.583l.127-.189c1.167-1.673 1.75-3.743 2.283-5.275l.106-.3c.144-.395.373-1.32.13-1.663-.064-.087.048-.183.195-.263z"></path></svg>
